<?xml version="1.0" encoding="utf-8"?>
<!-- Generator: Adobe Illustrator 14.0.0, SVG Export Plug-In . SVG Version: 6.00 Build 43363)  -->
<!DOCTYPE svg PUBLIC "-//W3C//DTD SVG 1.0//EN" "http://www.w3.org/TR/2001/REC-SVG-20010904/DTD/svg10.dtd">
<svg version="1.0" id="Ebene_1" xmlns="http://www.w3.org/2000/svg" xmlns:xlink="http://www.w3.org/1999/xlink" x="0px" y="0px"
	 width="596.944px" height="270.298px" viewBox="0 0 596.944 270.298" enable-background="new 0 0 596.944 270.298"
	 xml:space="preserve">
<path fill="#0D5CA4" d="M414.608,136.522L414.608,136.522c0,20.618,0,20.618,0,20.618c0,49.478,0,49.478,0,49.478
	c7.788,4.578,16.953,7.331,27.029,7.331c10.079,0,19.701-2.753,27.948-7.331c0-32.07,0-32.07,0-32.07c0-38.025,0-38.025,0-38.025
	c-0.458,0-0.458,0-0.458,0c-7.789,4.582-17.411,7.335-27.49,7.335C431.561,143.857,422.396,141.104,414.608,136.522"/>
<path fill="#0D5CA4" d="M596.944,213.949L596.944,213.949c0-20.619,0-20.619,0-20.619c0-49.473,0-49.473,0-49.473
	c-7.788-4.588-16.948-7.335-27.029-7.335c-10.078,0-19.243,2.747-27.031,7.335c0,32.065,0,32.065,0,32.065
	c0,38.026,0,38.026,0,38.026c7.788-4.124,16.953-7.331,27.031-7.331C579.996,206.618,589.156,209.825,596.944,213.949"/>
<path fill="#0D5CA4" d="M533.264,213.949L533.264,213.949c0-20.619,0-20.619,0-20.619c0-49.473,0-49.473,0-49.473
	c-7.787-4.588-16.952-7.335-27.029-7.335c-10.078,0-19.241,2.747-27.947,7.335c0,32.065,0,32.065,0,32.065
	c0,38.026,0,38.026,0,38.026c0.917,0,0.917,0,0.917,0c7.789-4.124,16.952-7.331,27.03-7.331
	C516.312,206.618,525.477,209.825,533.264,213.949"/>
<path fill="#0D5CA4" d="M414.608,56.35L414.608,56.35c0,20.617,0,20.617,0,20.617c0,49.479,0,49.479,0,49.479
	c7.788,4.58,16.953,7.33,27.029,7.33c10.079,0,19.701-2.75,27.948-7.33c0-32.071,0-32.071,0-32.071c0-38.025,0-38.025,0-38.025
	c-0.458,0-0.458,0-0.458,0c-7.789,4.582-17.411,6.415-27.49,6.415C431.561,62.765,422.396,60.932,414.608,56.35"/>
<path fill="#0D5CA4" d="M596.944,133.775L596.944,133.775c0-20.615,0-20.615,0-20.615c0-49.478,0-49.478,0-49.478
	c-7.788-5.041-16.948-7.332-27.029-7.332c-10.078,0-19.243,2.292-27.031,7.332c0,69.176,0,69.176,0,69.176c0,0.917,0,0.917,0,0.917
	c0-0.917,0-0.917,0.459-0.917c1.376-0.457,3.665-1.374,5.958-1.833c0-0.916,0-0.916,0-0.916c1.83-0.458,3.665-1.375,5.496-1.375
	c0.916,0,1.376-0.915,2.292-0.915c1.372,0,2.748-0.459,4.123-0.459c0.914,0,1.373,0,2.289,0c2.291-0.915,4.124-0.915,6.414-0.915
	c2.292,0,4.123,0,7.329,0.915h0.459c2.293,0,4.582,0.459,6.417,0.459c0,0,0,0,0,0.915
	C589.156,129.651,593.737,131.484,596.944,133.775"/>
<path fill="#0D5CA4" d="M533.264,133.775L533.264,133.775c0-77.425,0-77.425,0-77.425c0-49.479,0-49.479,0-49.479
	C525.477,1.833,516.312,0,506.235,0c-10.078,0-19.241,1.833-27.947,6.871c0,88.879,0,88.879,0,88.879c0,38.025,0,38.025,0,38.025
	c0.917,0,0.917,0,0.917,0c7.789-5.041,16.952-7.33,27.03-7.33C516.312,126.445,525.477,128.734,533.264,133.775"/>
<path fill="#0D5CA4" d="M341.765,67.346c0-7.331,0-7.331,0-7.331c-21.072,0-21.072,0-21.072,0c0,33.444,0,33.444,0,33.444
	c21.072,0,21.072,0,21.072,0c0-6.872,0-6.872,0-6.872c-11.453,0-11.453,0-11.453,0c0-5.956,0-5.956,0-5.956
	c10.535,0,10.535,0,10.535,0c0-7.789,0-7.789,0-7.789c-10.535,0-10.535,0-10.535,0c0-5.497,0-5.497,0-5.497 M305.575,60.015
	c-9.165,0-9.165,0-9.165,0c0,33.444,0,33.444,0,33.444c20.618,0,20.618,0,20.618,0c0-6.872,0-6.872,0-6.872
	c-11.453,0-11.453,0-11.453,0V60.015z M281.292,60.015c0,17.867,0,17.867,0,17.867c0,4.124-0.458,9.162-6.412,9.162
	c-6.416,0-6.416-5.039-6.416-9.162c0-17.867,0-17.867,0-17.867c-10.079,0-10.079,0-10.079,0c0,19.241,0,19.241,0,19.241
	c0,4.582,0.917,8.705,4.583,11.453c2.748,2.75,7.788,4.583,11.912,4.583c4.579,0,8.703-1.833,12.367-4.583
	c3.665-2.748,3.665-6.872,3.665-11.453c0-19.241,0-19.241,0-19.241H281.292z M229.979,72.843c0-12.828,0-12.828,0-12.828
	c-10.077,0-10.077,0-10.077,0c0,33.444,0,33.444,0,33.444c10.077,0,10.077,0,10.077,0c0-13.285,0-13.285,0-13.285
	c13.748,0,13.748,0,13.748,0c0,13.285,0,13.285,0,13.285c9.16,0,9.16,0,9.16,0c0-33.444,0-33.444,0-33.444c-9.16,0-9.16,0-9.16,0
	c0,12.828,0,12.828,0,12.828H229.979z M213.948,60.932c-2.751-1.833-5.499-2.291-8.247-2.291c-5.04,0-10.081,2.291-13.746,5.497
	c-3.665,3.665-5.496,8.247-5.496,12.829c0,5.039,1.831,9.621,5.496,13.286c4.124,2.748,8.706,5.039,14.205,5.039
	c3.207,0,5.037-0.917,7.788-2.292c0-10.08,0-10.08,0-10.08c-1.375,2.291-4.581,3.667-7.788,3.667
	c-5.499,0-10.081-4.582-10.081-9.621c0-5.499,4.582-9.621,10.081-9.621c3.207,0,6.413,1.374,7.788,4.122V60.932z M181.877,61.391
	c-3.665-1.375-7.788-2.75-11.452-2.75c-6.872,0-12.83,5.041-12.83,11.453c0,6.873,4.124,8.706,10.082,10.08
	c2.289,0.458,5.496,1.373,5.496,3.664c0,2.75-1.831,3.207-4.125,3.207c-3.664,0-6.412-1.374-8.701-3.207
	c-4.123,6.872-4.123,6.872-4.123,6.872c3.664,2.75,8.701,4.583,12.824,4.583c3.666,0,7.79-1.833,10.541-3.665
	c3.207-2.292,3.665-5.956,3.665-9.621c0-5.039-4.124-7.789-9.164-9.163c-2.289-0.458-2.289-0.458-2.289-0.458
	c-1.375,0-4.124-0.917-4.124-3.206c0-1.833,2.289-2.75,4.124-2.75c2.289,0,4.578,0.917,6.412,2.292L181.877,61.391z M128.275,72.843
	c0-12.828,0-12.828,0-12.828c-9.164,0-9.164,0-9.164,0c0,33.444,0,33.444,0,33.444c9.164,0,9.164,0,9.164,0
	c0-13.285,0-13.285,0-13.285c13.743,0,13.743,0,13.743,0c0,13.285,0,13.285,0,13.285c9.165,0,9.165,0,9.165,0
	c0-33.444,0-33.444,0-33.444c-9.165,0-9.165,0-9.165,0c0,12.828,0,12.828,0,12.828H128.275z M112.699,60.932
	c-3.207-1.833-5.954-2.291-8.706-2.291c-5.954,0-10.995,2.291-14.201,5.497c-3.665,3.665-5.041,8.247-5.041,12.829
	c0,5.039,1.375,9.621,5.499,13.286c3.665,2.748,8.706,5.039,13.742,5.039c2.752,0,5.041-0.917,8.706-2.292c0-10.08,0-10.08,0-10.08
	c-2.29,2.291-5.041,3.667-8.706,3.667c-5.954,0-9.16-4.582-9.16-9.621c0-5.499,3.207-9.621,9.16-9.621
	c3.666,0,6.417,1.374,8.706,4.122V60.932z M60.932,67.346c5.954,0,10.995,4.122,10.995,9.163c0,5.497-5.041,10.079-10.995,10.079
	c-5.5,0-10.081-4.582-10.081-10.079C50.851,71.468,55.432,67.346,60.932,67.346z M60.932,58.641
	c-10.081,0-20.159,6.873-20.159,17.868c0,10.536,8.705,18.783,20.159,18.783c12.367,0,20.614-8.248,20.614-18.783
	C81.546,65.514,71.926,58.641,60.932,58.641z M12.826,72.843c0-12.828,0-12.828,0-12.828c-9.16,0-9.16,0-9.16,0
	c0,33.444,0,33.444,0,33.444c9.16,0,9.16,0,9.16,0c0-13.285,0-13.285,0-13.285c13.747,0,13.747,0,13.747,0
	c0,13.285,0,13.285,0,13.285c9.16,0,9.16,0,9.16,0c0-33.444,0-33.444,0-33.444c-9.16,0-9.16,0-9.16,0c0,12.828,0,12.828,0,12.828
	H12.826z"/>
<path fill="#0D5CA4" d="M270.756,139.27c-7.788,0-7.788,0-7.788,0c3.665-10.535,3.665-10.535,3.665-10.535c0.459,0,0.459,0,0.459,0
	 M273.503,146.601c2.289,5.958,2.289,5.958,2.289,5.958c10.082,0,10.082,0,10.082,0c-13.746-34.36-13.746-34.36-13.746-34.36
	c-10.536,0-10.536,0-10.536,0c-13.743,34.36-13.743,34.36-13.743,34.36c10.077,0,10.077,0,10.077,0
	c1.835-5.958,1.835-5.958,1.835-5.958H273.503z M226.315,125.986c2.293,0,2.293,0,2.293,0c6.412,0,10.536,2.748,10.536,9.163
	s-5.042,9.163-10.536,9.163c-2.293,0-2.293,0-2.293,0V125.986z M217.154,152.559c13.284,0,13.284,0,13.284,0
	c10.082,0,17.869-8.247,17.869-17.41c0-10.08-7.788-16.95-17.869-16.95c-13.284,0-13.284,0-13.284,0V152.559z M210.738,118.199
	c-9.62,0-9.62,0-9.62,0c0,34.36,0,34.36,0,34.36c9.62,0,9.62,0,9.62,0V118.199z M195.62,125.986c0-7.788,0-7.788,0-7.788
	c-20.614,0-20.614,0-20.614,0c0,34.36,0,34.36,0,34.36c20.614,0,20.614,0,20.614,0c0-8.247,0-8.247,0-8.247
	c-11.452,0-11.452,0-11.452,0c0-5.497,0-5.497,0-5.497c10.539,0,10.539,0,10.539,0c0-7.331,0-7.331,0-7.331
	c-10.539,0-10.539,0-10.539,0c0-5.498,0-5.498,0-5.498H195.62z M126.9,118.199c-10.077,0-10.077,0-10.077,0
	c10.536,34.36,10.536,34.36,10.536,34.36c10.082,0,10.082,0,10.082,0c7.329-20.158,7.329-20.158,7.329-20.158
	c6.414,20.158,6.414,20.158,6.414,20.158c10.077,0,10.077,0,10.077,0c11.454-34.36,11.454-34.36,11.454-34.36
	c-10.078,0-10.078,0-10.078,0c-7.329,21.99-7.329,21.99-7.329,21.99c-6.872-21.99-6.872-21.99-6.872-21.99c-7.33,0-7.33,0-7.33,0
	c-7.788,21.99-7.788,21.99-7.788,21.99L126.9,118.199z M108.117,125.986c7.789,0,7.789,0,7.789,0c0-7.788,0-7.788,0-7.788
	c-24.737,0-24.737,0-24.737,0c0,7.788,0,7.788,0,7.788c7.789,0,7.789,0,7.789,0c0,26.572,0,26.572,0,26.572c9.16,0,9.16,0,9.16,0
	V125.986z M81.087,125.986c7.789,0,7.789,0,7.789,0c0-7.788,0-7.788,0-7.788c-25.196,0-25.196,0-25.196,0c0,7.788,0,7.788,0,7.788
	c7.33,0,7.33,0,7.33,0c0,26.572,0,26.572,0,26.572c10.078,0,10.078,0,10.078,0V125.986z M59.556,118.199c-9.165,0-9.165,0-9.165,0
	c0,34.36,0,34.36,0,34.36c9.165,0,9.165,0,9.165,0V118.199z M0,152.559c9.62,0,9.62,0,9.62,0
	c2.748-20.158,2.748-20.158,2.748-20.158c8.705,20.158,8.705,20.158,8.705,20.158c3.206,0,3.206,0,3.206,0
	c8.706-20.158,8.706-20.158,8.706-20.158c0.917,0,0.917,0,0.917,0c1.831,20.158,1.831,20.158,1.831,20.158
	c10.081,0,10.081,0,10.081,0c-5.5-34.36-5.5-34.36-5.5-34.36c-9.619,0-9.619,0-9.619,0c-7.789,18.324-7.789,18.324-7.789,18.324
	c-7.789-18.324-7.789-18.324-7.789-18.324c-9.164,0-9.164,0-9.164,0L0,152.559z"/>
<path fill="#0D5CA4" d="M341.765,179.588c0-3.665,0-3.665,0-3.665c-16.495,0-16.495,0-16.495,0c0,34.36,0,34.36,0,34.36
	c3.21,0,3.21,0,3.21,0c0-16.953,0-16.953,0-16.953c12.367,0,12.367,0,12.367,0c0-3.661,0-3.661,0-3.661c-12.367,0-12.367,0-12.367,0
	c0-10.081,0-10.081,0-10.081 M300.992,178.671c8.247,0,14.661,6.412,14.661,14.659c0,7.793-6.414,14.205-14.661,14.205
	c-8.706,0-15.118-6.412-15.118-14.205C285.874,185.083,292.286,178.671,300.992,178.671z M300.992,175.464
	c-10.995,0-19.7,8.247-19.7,17.866c0,10.081,8.706,17.866,19.7,17.866c10.537,0,19.242-7.785,19.242-17.866
	C320.234,183.711,311.529,175.464,300.992,175.464z M245.556,196.083c0,14.2,0,14.2,0,14.2c4.583,0,4.583,0,4.583,0
	c0-14.2,0-14.2,0-14.2c11.454-20.16,11.454-20.16,11.454-20.16c-4.582,0-4.582,0-4.582,0c-9.161,16.036-9.161,16.036-9.161,16.036
	c-9.165-16.036-9.165-16.036-9.165-16.036c-5.04,0-5.04,0-5.04,0L245.556,196.083z M223.567,179.588c8.706,0,8.706,0,8.706,0
	c0-3.665,0-3.665,0-3.665c-21.535,0-21.535,0-21.535,0c0,3.665,0,3.665,0,3.665c8.247,0,8.247,0,8.247,0c0,30.695,0,30.695,0,30.695
	c4.583,0,4.583,0,4.583,0V179.588z M205.701,175.923c-3.664,0-3.664,0-3.664,0c0,34.36,0,34.36,0,34.36c3.664,0,3.664,0,3.664,0
	V175.923z M194.247,180.96c-2.292-3.661-5.957-5.496-10.08-5.496c-5.039,0-10.079,3.207-10.079,9.165
	c0,5.04,3.665,6.412,7.788,8.701c2.291,0.459,2.291,0.459,2.291,0.459c3.664,1.376,6.874,2.748,6.874,7.334
	c0,3.661-3.21,6.412-7.789,6.412c-3.665,0-6.416-2.751-6.875-6.412c-3.665,1.372-3.665,1.372-3.665,1.372
	c0.459,5.04,5.04,8.701,10.539,8.701c6.414,0,12.367-4.578,12.367-10.99c0-5.041-4.578-7.792-9.16-9.165
	c-2.292-1.372-2.292-1.372-2.292-1.372c-2.748-0.917-5.955-2.292-5.955-5.04c0-3.669,3.207-5.958,5.955-5.958
	c3.664,0,5.04,1.835,6.415,4.583L194.247,180.96z M151.183,195.165c1.375,0,1.375,0,1.375,0
	c10.995,15.118,10.995,15.118,10.995,15.118c4.581,0,4.581,0,4.581,0c-11.452-15.118-11.452-15.118-11.452-15.118
	c5.953-0.459,9.619-4.124,9.619-9.164c0-7.784-6.414-10.078-13.743-10.078c-5.042,0-5.042,0-5.042,0c0,34.36,0,34.36,0,34.36
	c3.666,0,3.666,0,3.666,0V195.165z M151.183,179.588c1.375,0,1.375,0,1.375,0c5.037,0,9.16,0.918,9.16,6.413
	c0,5.04-4.124,5.958-9.16,5.958c-1.375,0-1.375,0-1.375,0V179.588z M120.946,210.283c18.783,0,18.783,0,18.783,0
	c0-3.665,0-3.665,0-3.665c-14.202,0-14.202,0-14.202,0c0-13.288,0-13.288,0-13.288c14.202,0,14.202,0,14.202,0
	c0-3.661,0-3.661,0-3.661c-14.202,0-14.202,0-14.202,0c0-10.081,0-10.081,0-10.081c14.202,0,14.202,0,14.202,0
	c0-3.665,0-3.665,0-3.665c-18.783,0-18.783,0-18.783,0V210.283z M91.168,175.923c-4.582,0-4.582,0-4.582,0
	c15.118,36.653,15.118,36.653,15.118,36.653c15.118-36.653,15.118-36.653,15.118-36.653c-5.041,0-5.041,0-5.041,0
	c-10.077,26.572-10.077,26.572-10.077,26.572L91.168,175.923z M82.462,175.923c-4.124,0-4.124,0-4.124,0c0,34.36,0,34.36,0,34.36
	c4.124,0,4.124,0,4.124,0V175.923z M37.567,210.283c4.124,0,4.124,0,4.124,0c0-26.572,0-26.572,0-26.572
	c28.401,27.947,28.401,27.947,28.401,27.947c0-35.735,0-35.735,0-35.735c-4.123,0-4.123,0-4.123,0c0,26.572,0,26.572,0,26.572
	c-28.402-27.947-28.402-27.947-28.402-27.947V210.283z M7.33,175.923c-3.664,0-3.664,0-3.664,0c0,21.53,0,21.53,0,21.53
	c0,4.124,0,7.331,3.664,10.082c2.29,2.29,5.496,3.661,9.161,3.661c3.665,0,7.33-1.371,10.082-3.661
	c2.747-2.751,2.747-6.412,2.747-10.082c0-21.53,0-21.53,0-21.53c-4.124,0-4.124,0-4.124,0c0,20.614,0,20.614,0,20.614
	c0,3.207,0.917,5.958-1.375,8.247c-1.373,1.375-4.579,2.751-7.33,2.751c-2.748,0-5.496-1.376-6.871-3.668
	c-2.29-2.29-2.29-5.036-2.29-7.33V175.923z"/>
<path fill="#0D5CA4" d="M413.692,239.144c-1.831-3.205-5.496-5.04-9.162-5.04c-5.499,0-10.538,3.668-10.538,8.247
	c0,5.04,4.123,7.329,7.787,8.706c2.751,1.375,2.751,1.375,2.751,1.375c2.748,1.371,6.414,3.206,6.414,6.412
	c0,4.583-3.666,6.413-6.871,6.413c-4.583,0-7.33-2.748-8.247-5.496c-3.207,0.918-3.207,0.918-3.207,0.918
	c0.459,4.578,4.583,8.247,11.454,8.247c6.412,0,11.452-4.124,11.452-10.082c0-5.495-4.581-7.787-9.622-9.619
	c-1.83-0.916-1.83-0.916-1.83-0.916c-2.294-1.372-5.958-2.753-5.958-5.958c0-2.748,2.751-4.579,6.415-4.579
	c2.748,0,4.125,1.372,5.955,3.207 M369.712,268.926c18.324,0,18.324,0,18.324,0c0-3.669,0-3.669,0-3.669c-14.2,0-14.2,0-14.2,0
	c0-13.284,0-13.284,0-13.284c14.2,0,14.2,0,14.2,0c0-3.664,0-3.664,0-3.664c-14.2,0-14.2,0-14.2,0c0-10.081,0-10.081,0-10.081
	c14.2,0,14.2,0,14.2,0c0-3.662,0-3.662,0-3.662c-18.324,0-18.324,0-18.324,0V268.926z M362.382,237.771
	c-2.751-3.206-6.417-3.668-10.994-3.668c-10.541,0-19.242,7.791-19.242,17.869c0,9.16,9.619,16.953,19.242,16.953
	c3.664,0,8.243-0.462,10.994-2.751c0-5.042,0-5.042,0-5.042c-2.751,2.751-6.417,4.124-10.994,4.124
	c-8.247,0-14.664-6.413-14.664-13.284c0-7.787,6.417-14.201,14.664-14.201c4.577,0,8.243,1.372,10.994,4.123V237.771z
	 M294.121,268.926c4.58,0,4.58,0,4.58,0c0-26.575,0-26.575,0-26.575c28.405,27.947,28.405,27.947,28.405,27.947
	c0-35.732,0-35.732,0-35.732c-4.123,0-4.123,0-4.123,0c0,26.567,0,26.567,0,26.567c-28.861-27.942-28.861-27.942-28.861-27.942
	V268.926z M268.005,268.926c19.241,0,19.241,0,19.241,0c0-3.669,0-3.669,0-3.669c-15.118,0-15.118,0-15.118,0
	c0-13.284,0-13.284,0-13.284c14.205,0,14.205,0,14.205,0c0-3.664,0-3.664,0-3.664c-14.205,0-14.205,0-14.205,0
	c0-10.081,0-10.081,0-10.081c15.118,0,15.118,0,15.118,0c0-3.662,0-3.662,0-3.662c-19.241,0-19.241,0-19.241,0V268.926z
	 M259.761,234.565c-4.124,0-4.124,0-4.124,0c0,34.36,0,34.36,0,34.36c4.124,0,4.124,0,4.124,0V234.565z M248.307,237.771
	c-3.21-3.206-6.874-3.668-10.539-3.668c-10.537,0-19.242,7.791-19.242,17.869c0,9.16,8.705,16.953,19.242,16.953
	c3.665,0,7.788-0.462,10.539-2.751c0-5.042,0-5.042,0-5.042c-2.751,2.751-6.874,4.124-10.539,4.124
	c-8.703,0-15.118-6.413-15.118-13.284c0-7.787,6.416-14.201,14.205-14.201c4.578,0,8.701,1.372,11.452,4.123V237.771z
	 M212.572,239.144c-1.375-3.205-5.04-5.04-9.164-5.04c-5.496,0-10.078,3.668-10.078,8.247c0,5.04,3.665,7.329,7.788,8.706
	c2.291,1.375,2.291,1.375,2.291,1.375c3.665,1.371,6.416,3.206,6.416,6.412c0,4.583-3.665,6.413-7.329,6.413
	c-4.124,0-6.876-2.748-6.876-5.496c-4.578,0.918-4.578,0.918-4.578,0.918c1.83,4.578,5.954,8.247,11.454,8.247
	c6.871,0,11.452-4.124,11.452-10.082c0-5.495-4.124-7.787-8.247-9.619c-3.205-0.916-3.205-0.916-3.205-0.916
	c-1.835-1.372-5.5-2.753-5.5-5.958c0-2.748,2.748-4.579,6.414-4.579c2.751,0,5.04,1.372,6.416,3.207L212.572,239.144z
	 M148.435,265.257c0-27.029,0-27.029,0-27.029c2.748,0,2.748,0,2.748,0c4.124,0,7.788,0,11.452,2.751
	c3.666,3.207,5.042,6.412,5.042,10.994c0,3.665-1.375,6.871-5.042,10.078c-2.748,2.751-6.412,3.206-11.452,3.206H148.435z
	 M143.853,268.926c7.331,0,7.331,0,7.331,0c5.499,0,10.077-0.462,14.2-4.124c4.583-3.669,5.958-7.792,5.958-12.829
	c0-5.036-1.375-10.078-5.958-12.829c-4.124-3.661-8.701-4.578-14.2-4.578c-7.331,0-7.331,0-7.331,0V268.926z M118.198,268.926
	c18.783,0,18.783,0,18.783,0c0-3.669,0-3.669,0-3.669c-15.118,0-15.118,0-15.118,0c0-13.284,0-13.284,0-13.284
	c15.118,0,15.118,0,15.118,0c0-3.664,0-3.664,0-3.664c-15.118,0-15.118,0-15.118,0c0-10.081,0-10.081,0-10.081
	c15.118,0,15.118,0,15.118,0c0-3.662,0-3.662,0-3.662c-18.783,0-18.783,0-18.783,0V268.926z M110.41,234.565
	c-4.124,0-4.124,0-4.124,0c0,34.36,0,34.36,0,34.36c4.124,0,4.124,0,4.124,0V234.565z M91.168,234.565c-3.665,0-3.665,0-3.665,0
	c0,34.36,0,34.36,0,34.36c14.202,0,14.202,0,14.202,0c0-3.669,0-3.669,0-3.669c-10.537,0-10.537,0-10.537,0V234.565z
	 M66.886,238.228c1.375,0,1.375,0,1.375,0c4.124,0,9.161,0,9.161,5.958c0,5.039-3.665,6.412-7.789,6.412c-2.748,0-2.748,0-2.748,0
	V238.228z M66.886,253.803c2.748,0,2.748,0,2.748,0c2.751,0,6.416-0.454,8.705-2.746c1.834-1.377,3.207-4.12,3.207-6.871
	c0-3.207-1.373-5.958-4.124-8.247c-2.748-1.373-5.496-1.373-9.161-1.373c-5.958,0-5.958,0-5.958,0c0,34.36,0,34.36,0,34.36
	c4.583,0,4.583,0,4.583,0V253.803z M41.69,238.228c1.372,0,1.372,0,1.372,0c5.041,0,9.164,0,9.164,5.958
	c0,5.039-3.206,6.412-7.789,6.412c-2.747,0-2.747,0-2.747,0V238.228z M41.69,253.803c2.747,0,2.747,0,2.747,0
	c2.748,0,6.413-0.454,8.706-2.746c2.289-1.377,3.666-4.12,3.666-6.871c0-3.207-1.376-5.958-4.583-8.247
	c-1.834-1.373-5.499-1.373-8.247-1.373c-6.412,0-6.412,0-6.412,0c0,34.36,0,34.36,0,34.36c4.124,0,4.124,0,4.124,0V253.803z
	 M22.907,255.638c-12.829,0-12.829,0-12.829,0c6.413-13.743,6.413-13.743,6.413-13.743L22.907,255.638z M24.278,258.844
	c4.583,10.082,4.583,10.082,4.583,10.082c4.124,0,4.124,0,4.124,0c-16.494-36.194-16.494-36.194-16.494-36.194
	C0,268.926,0,268.926,0,268.926c4.579,0,4.579,0,4.579,0c4.124-10.082,4.124-10.082,4.124-10.082H24.278z"/>
<g>
</g>
<g>
</g>
</svg>
